<svg width="96" height="96" viewBox="0 0 96 96" fill="none" xmlns="http://www.w3.org/2000/svg">
  <rect width="96" height="96" rx="10" fill="#132744"/>
  <rect x="6" y="6" width="84" height="84" rx="6" fill="#243B5E" stroke="#5B739B" stroke-width="4"/>
  <rect x="28" y="18" width="32" height="8" fill="#6D3D1F"/>
  <rect x="20" y="26" width="48" height="8" fill="#8C5128"/>
  <rect x="20" y="34" width="8" height="16" fill="#8C5128"/>
  <rect x="60" y="34" width="8" height="16" fill="#8C5128"/>
  <rect x="28" y="34" width="32" height="24" fill="#F0B27A"/>
  <rect x="34" y="42" width="6" height="6" fill="#0A1220"/>
  <rect x="50" y="42" width="6" height="6" fill="#0A1220"/>
  <rect x="38" y="54" width="20" height="4" fill="#A35A2A"/>
  <rect x="24" y="58" width="40" height="8" fill="#203B6E"/>
  <rect x="20" y="66" width="48" height="12" fill="#2E5B98"/>
  <rect x="18" y="78" width="16" height="8" fill="#1A2435"/>
  <rect x="62" y="78" width="16" height="8" fill="#1A2435"/>
  <rect x="36" y="70" width="8" height="16" fill="#1A2435"/>
  <rect x="52" y="70" width="8" height="16" fill="#1A2435"/>
</svg>
