<svg width="160" height="96" viewBox="0 0 160 96" fill="none" xmlns="http://www.w3.org/2000/svg">
  <rect width="160" height="96" rx="10" fill="#071321"/>
  <rect x="14" y="78" width="132" height="6" fill="#335A88"/>
  <rect x="18" y="72" width="56" height="6" fill="#203B5E"/>
  <rect x="74" y="54" width="18" height="18" fill="#E9A86B"/>
  <rect x="92" y="48" width="18" height="12" fill="#8D4E28"/>
  <rect x="110" y="54" width="18" height="6" fill="#8D4E28"/>
  <rect x="56" y="58" width="24" height="12" fill="#23416E"/>
  <rect x="80" y="60" width="24" height="12" fill="#2E69B2"/>
  <rect x="104" y="60" width="18" height="12" fill="#2E69B2"/>
  <rect x="34" y="64" width="24" height="8" fill="#203B5E"/>
  <rect x="28" y="68" width="10" height="6" fill="#D7DCE2"/>
  <rect x="46" y="68" width="12" height="6" fill="#D7DCE2"/>
  <rect x="118" y="68" width="12" height="6" fill="#D7DCE2"/>
  <rect x="128" y="70" width="12" height="6" fill="#D7DCE2"/>
  <rect x="64" y="70" width="14" height="8" fill="#1A2435"/>
  <rect x="96" y="70" width="14" height="8" fill="#1A2435"/>
</svg>
